<svg width="234" height="79" viewBox="0 0 234 79" fill="none" xmlns="http://www.w3.org/2000/svg">
<g clip-path="url(#clip0_220_1866)">
<path d="M22.2478 6.06253C20.9224 5.78272 19.9757 4.66348 19.9757 3.26442C19.9757 1.86536 21.2065 0.466309 22.8159 0.466309C24.4253 0.466309 25.656 1.67882 25.656 3.26442C25.656 4.85002 25.656 4.47694 25.1827 4.94329C25.1827 4.94329 29.3482 13.8972 30.9576 17.3482C32.0937 17.255 33.2298 17.1617 34.4605 17.1617C53.2055 17.1617 68.353 30.033 68.353 45.9823C68.353 61.9315 53.8682 75.2691 35.2179 75.2691C34.6498 73.3105 29.9163 64.2632 30.6736 63.0507C30.9576 62.6777 31.5257 62.118 32.6617 60.9988C34.5552 59.1334 35.3125 58.7603 35.9752 58.667H37.206C37.6793 58.667 38.4367 58.667 39.2887 58.9468C39.8568 59.1334 40.0461 59.2266 40.7088 59.4132C41.7502 59.7863 42.6023 60.0661 43.549 60.0661C44.117 60.0661 45.2531 60.0661 46.3891 59.5065C46.8625 59.2266 47.3358 58.667 48.2826 57.6411C49.608 56.0555 48.9453 56.5218 50.3653 54.7497C50.6494 54.3766 51.1227 53.817 51.028 53.3506C51.028 52.9775 50.6494 52.791 50.5547 52.6977C49.4186 51.8583 48.2826 50.9256 47.0518 50.1794C47.0518 50.1794 45.6318 49.34 43.9277 47.7544C43.833 47.6611 43.549 47.3813 43.4543 46.915C43.4543 46.5419 43.549 46.4486 43.6436 45.9823C43.833 45.1428 43.265 44.863 43.3596 43.837C43.3596 43.2774 43.6436 43.3707 43.6436 42.9976C43.6436 41.9716 42.5076 41.5985 42.3182 40.6658C42.0342 39.4533 43.7383 39.0802 44.7797 36.8418C45.6318 35.0696 45.3477 33.484 45.9158 33.3908C46.3891 33.3908 46.6731 34.1369 47.5252 34.2302C48.0932 34.2302 48.9453 34.0436 49.1346 33.5773C49.608 32.458 46.8625 29.1936 43.9277 29.1936C42.6023 29.1936 41.3715 29.8465 41.1822 29.9397C40.7088 30.2196 40.2355 30.5926 39.3834 31.2455C38.626 31.8984 37.9633 32.3648 37.3953 33.0177C36.2593 34.3235 36.6379 35.4427 35.5966 35.7225C32.283 36.5619 30.9576 36.3754 28.8749 36.1889C26.7921 36.0023 28.7802 35.536 27.7388 32.6446C27.2654 31.3388 26.6027 29.3801 25.656 29.3801C24.7093 29.3801 24.6146 31.6186 22.8159 32.1782C22.1532 32.3648 21.7745 32.1782 21.1118 32.6446C20.9224 32.7379 20.1651 33.2042 19.9757 34.0436C19.6917 35.0696 20.5438 35.3494 20.6384 37.1216C20.6384 37.4946 20.6384 37.961 20.5438 38.5206C20.3544 39.1735 20.0704 39.2668 19.6917 40.1062C19.5024 40.5726 19.1237 41.1322 19.1237 41.9716C19.1237 42.6245 19.313 43.0909 19.5024 43.5572C20.0704 45.0496 20.7331 45.1428 20.7331 45.889C20.7331 46.7284 19.6917 46.7284 18.8397 47.9409C18.177 48.8736 18.0823 49.7131 17.8929 51.2987C17.7036 52.4179 17.7983 53.2573 17.8929 54.3766C17.8929 55.4026 17.0409 58.2939 15.6208 60.2526C12.0233 65.0094 10.6979 66.0354 10.4139 66.2219C4.26023 60.9988 0.473358 53.9102 0.473358 45.889C0.473358 31.9917 12.118 20.3329 27.5495 17.7213C25.94 14.2703 24.804 10.0732 23.1946 6.62215L22.7212 5.96926H22.1532" fill="#7530DE"/>
<path d="M35.2179 75.7355H34.8581L34.7634 75.3998C34.5836 74.7842 33.9493 73.3758 33.2108 71.7342C30.7399 66.2686 29.7269 63.6757 30.276 62.8083C30.6074 62.3699 31.1849 61.8009 32.3304 60.6724C34.2711 58.7603 35.1137 58.322 35.909 58.21H37.206C37.6983 58.21 38.5124 58.21 39.4402 58.5085C39.6485 58.5738 39.8094 58.6298 39.9609 58.6857C40.2165 58.7697 40.4343 58.8536 40.8414 58.9655C41.8922 59.3386 42.6875 59.5998 43.549 59.5998C44.1075 59.5998 45.1395 59.5998 46.1808 59.0868C46.4933 58.9002 46.8814 58.4805 47.5252 57.7717L47.9323 57.324C48.5571 56.5685 48.7086 56.3166 48.879 56.0182C49.0589 55.7104 49.2671 55.356 49.9866 54.4512L50.0624 54.358C50.2517 54.1155 50.602 53.6491 50.5641 53.4346C50.5641 53.276 50.4316 53.1828 50.3559 53.1268C50.2991 53.0802 50.2517 53.0429 50.2233 53.0149C49.9677 52.8377 49.6742 52.6045 49.3713 52.3713C48.5476 51.7464 47.6956 51.0935 46.8057 50.5619C46.7489 50.5246 45.3288 49.6758 43.6058 48.0809C43.4732 47.9503 43.1135 47.5959 42.9904 46.9896C42.9904 46.5979 43.0283 46.43 43.0851 46.2434C43.1135 46.1502 43.1419 46.0383 43.1798 45.8704C43.246 45.5626 43.1798 45.376 43.0851 45.0962C42.9715 44.7791 42.8295 44.378 42.8863 43.7718C42.8863 43.38 43.0188 43.1749 43.1419 43.0163C43.1608 42.6152 42.9525 42.3727 42.6117 41.9996C42.3088 41.6639 41.9585 41.2908 41.8449 40.7312C41.6366 39.8544 42.2046 39.2948 42.7916 38.6979C43.2744 38.2129 43.8803 37.6066 44.3347 36.6273C44.7324 35.7972 44.8649 35.0137 44.969 34.3888C45.0921 33.6519 45.2057 33.0084 45.8211 32.9058C46.2945 32.9058 46.5595 33.1296 46.7962 33.3348C47.0234 33.5307 47.2317 33.7079 47.5631 33.7452C48.0743 33.7452 48.6139 33.5494 48.6802 33.3815C48.737 33.2416 48.6802 32.8218 48.2542 32.2063C47.3926 30.9285 45.6223 29.6413 43.9087 29.6413C43.388 29.6413 42.536 29.7626 41.4189 30.3222C41.0118 30.5647 40.5952 30.8818 39.9041 31.4041L39.658 31.6C39.4592 31.7772 39.2414 31.9544 39.0331 32.1223C38.5408 32.5234 38.1148 32.8778 37.7361 33.3068C37.2722 33.8385 37.0924 34.3328 36.9314 34.7712C36.7231 35.3495 36.5054 35.9464 35.7007 36.1609C32.4819 36.9724 31.0807 36.8511 29.1399 36.6739L28.8086 36.6459C28.1554 36.59 27.7577 36.4967 27.5305 36.1982C27.3128 35.8998 27.379 35.564 27.4548 35.2375C27.5589 34.7619 27.7199 34.0344 27.2749 32.7939L27.2086 32.6166C26.9057 31.7865 26.2051 29.8372 25.6371 29.8372C25.4951 29.8372 25.2584 30.2476 25.0691 30.5834C24.6714 31.2829 24.1223 32.2529 22.9389 32.6166C22.6455 32.7006 22.4183 32.7192 22.2194 32.7379C21.907 32.7659 21.6893 32.7845 21.3674 33.0177C21.2917 33.055 20.5816 33.4281 20.4207 34.137C20.3165 34.5194 20.4112 34.7246 20.5911 35.1256C20.7804 35.5547 21.0455 36.1329 21.0929 37.0936C21.0929 37.5133 21.0929 37.9983 20.9887 38.5953C20.8562 39.071 20.6952 39.2948 20.5343 39.5466C20.4017 39.7425 20.2692 39.9384 20.1083 40.2928C20.0704 40.3861 20.0136 40.5073 19.9568 40.6286C19.7674 41.0203 19.5781 41.4214 19.5781 41.9717C19.5781 42.522 19.7485 42.951 19.9189 43.38C20.184 44.0702 20.4586 44.434 20.6858 44.7231C20.9414 45.0496 21.1781 45.3574 21.1781 45.889C21.1781 46.5792 20.7142 46.9057 20.2692 47.2135C19.9284 47.4466 19.5497 47.7171 19.1994 48.2021C18.6125 49.0322 18.5178 49.7877 18.3379 51.2987C18.1675 52.3433 18.2338 53.1175 18.3095 54.0875L18.3284 54.33C18.3284 55.5518 17.4101 58.5272 15.9711 60.5138C12.3641 65.2799 10.9819 66.3805 10.6411 66.6044L10.3381 66.8002L10.0636 66.5671C3.58806 61.0455 0 53.6958 0 45.889C0 32.169 11.2659 20.2583 26.8678 17.3669C26.1578 15.7627 25.533 14.0185 24.9271 12.3303C24.2549 10.4649 23.5638 8.52491 22.7685 6.81806L22.4845 6.43566H22.1721L22.1532 6.5196C20.5911 6.19315 19.5118 4.85006 19.5118 3.26446C19.5118 1.52963 21.0644 0 22.8253 0C24.6809 0 26.1389 1.43636 26.1389 3.26446C26.1389 4.56092 26.1388 4.75679 25.7696 5.06458C26.4986 6.63152 29.7553 13.6361 31.2606 16.854C32.2925 16.77 33.3434 16.6954 34.47 16.6954C53.4232 16.6954 68.8358 29.8372 68.8358 45.9823C68.8358 62.1274 53.7546 75.7355 35.2273 75.7355H35.2179ZM35.9752 59.1334C35.5871 59.1894 34.9338 59.4226 32.9931 61.3253C31.9138 62.3885 31.3174 62.9762 31.0523 63.3306C30.7683 64.0394 32.9173 68.7962 34.0723 71.3518C34.7161 72.7789 35.2841 74.038 35.5587 74.7935C53.4138 74.635 67.8796 61.7636 67.8796 45.973C67.8796 30.1823 52.8836 17.6188 34.4605 17.6188C33.2582 17.6188 32.1126 17.712 31.0144 17.8053L30.6831 17.8333L30.5316 17.5348C28.9222 14.0838 24.7566 5.12987 24.7566 5.12987L24.6146 4.8314L24.8513 4.59823C24.9555 4.49563 25.0407 4.43034 25.1069 4.37438C25.1827 4.26246 25.1827 3.84274 25.1827 3.25514C25.1827 1.92137 24.1697 0.923377 22.8159 0.923377C21.4621 0.923377 20.4491 2.15455 20.4491 3.25514C20.4491 4.35573 21.1213 5.25112 22.1532 5.54959V5.49362H22.9673L23.5827 6.34239C24.4442 8.16116 25.1448 10.1198 25.817 12.0039C26.4891 13.8693 27.1802 15.8093 27.9755 17.5162L28.2311 18.0665L27.6252 18.1691C12.1653 20.7993 0.946717 32.4488 0.946717 45.889C0.946717 53.304 4.30756 60.2993 10.4328 65.6157C10.9914 65.14 12.3831 63.7503 15.2421 59.9728C16.5865 58.1074 17.4196 55.2907 17.4196 54.3766L17.4007 54.1714C17.3154 53.1734 17.2397 52.3153 17.4291 51.2241C17.6184 49.6385 17.732 48.6965 18.4515 47.6705C18.8965 47.0456 19.3888 46.7005 19.7485 46.4486C20.1651 46.1595 20.2597 46.0756 20.2597 45.889C20.2597 45.6838 20.184 45.5812 19.9568 45.2921C19.7106 44.975 19.3698 44.5366 19.0574 43.7251C18.8681 43.2588 18.6503 42.7178 18.6503 41.9717C18.6503 41.2255 18.9154 40.6472 19.1142 40.2368C19.1615 40.1342 19.2089 40.0316 19.2468 39.9384C19.4456 39.4907 19.616 39.2388 19.758 39.0336C19.9 38.8191 20.0041 38.6792 20.0799 38.3994C20.1556 37.9331 20.1556 37.4854 20.1556 37.1309C20.1177 36.3661 19.9095 35.9184 19.7296 35.5174C19.5308 35.0697 19.3225 34.6126 19.5118 33.9318C19.7674 32.8032 20.8467 32.2622 20.894 32.2342C21.3579 31.8985 21.7745 31.8612 22.1342 31.8238C22.2952 31.8052 22.4751 31.7959 22.6739 31.7399C23.4786 31.4881 23.8857 30.7699 24.2454 30.145C24.5862 29.5481 24.946 28.9231 25.6371 28.9231C26.8773 28.9231 27.5589 30.8072 28.0986 32.3182L28.1648 32.4954C28.7045 33.9784 28.4962 34.8924 28.3826 35.4427C28.3636 35.508 28.3542 35.592 28.3447 35.6479C28.4299 35.6666 28.5908 35.7039 28.9033 35.7319L29.2346 35.7599C31.147 35.9371 32.4061 36.049 35.464 35.2749C35.767 35.1909 35.8522 35.0137 36.051 34.4727C36.2214 34.0157 36.4486 33.3815 37.0261 32.7192C37.4521 32.2249 37.9255 31.8332 38.4367 31.4228C38.6355 31.2549 38.8533 31.087 39.071 30.9005L39.3456 30.6953C40.0556 30.145 40.4911 29.8185 40.9455 29.5481C42.2993 28.8672 43.3123 28.7366 43.9371 28.7366C46.0767 28.7366 48.0932 30.2849 49.0683 31.7213C49.6174 32.5327 49.7973 33.2602 49.5796 33.7639C49.2766 34.5007 48.15 34.7059 47.5346 34.7059C46.8625 34.6313 46.4838 34.3142 46.1998 34.0717C46.1524 34.0344 46.1051 33.9877 46.0483 33.9504C46.001 34.109 45.9631 34.3608 45.9252 34.5753C45.8116 35.2189 45.6696 36.105 45.2152 37.0563C44.6945 38.1849 43.9939 38.8844 43.4827 39.3881C42.8863 39.985 42.6969 40.2089 42.7821 40.5726C42.8484 40.8897 43.0661 41.1322 43.3218 41.412C43.672 41.7945 44.117 42.2795 44.117 43.0163C44.117 43.3427 43.9845 43.52 43.8993 43.6226C43.8519 43.6878 43.833 43.7065 43.833 43.8557C43.7951 44.3034 43.8803 44.5459 43.975 44.8351C44.0886 45.1708 44.2306 45.5532 44.0981 46.1035C44.0602 46.2901 44.0223 46.4207 43.9845 46.5419C43.9371 46.7005 43.9182 46.7751 43.9182 46.9336C43.975 47.1668 44.1738 47.3627 44.2495 47.4466C45.8874 48.9669 47.2696 49.7971 47.2885 49.8064C48.2163 50.3753 49.0967 51.0375 49.9393 51.6811C50.2423 51.905 50.5357 52.1381 50.8387 52.3527L50.6399 52.791L50.9239 52.4179C51.0943 52.5485 51.5014 52.847 51.5014 53.3786C51.6245 53.9196 51.1606 54.5165 50.8198 54.9642L50.744 55.0575C50.0529 55.9156 49.873 56.2234 49.7026 56.5218C49.5133 56.839 49.3429 57.1374 48.6518 57.9675L48.2352 58.4246C47.5252 59.1987 47.0992 59.6651 46.6447 59.9355C45.3761 60.5605 44.1549 60.5604 43.5584 60.5604C42.536 60.5604 41.6366 60.262 40.5573 59.8796C40.1503 59.7676 39.9136 59.6837 39.6485 59.5904C39.5065 59.5438 39.355 59.4878 39.1562 59.4226C38.3799 59.1614 37.6793 59.1614 37.2249 59.1614H35.9942L35.9752 59.1334Z" fill="#7530DE"/>
<path d="M86.9936 21.509V33.8673C88.5368 32.2817 90.1083 31.0785 91.7178 30.2391C93.3272 29.3996 95.3058 28.9799 97.6726 28.9799C100.399 28.9799 102.794 29.6142 104.849 30.892C106.903 32.1698 108.503 34.0165 109.63 36.4322C110.766 38.8573 111.334 41.7207 111.334 45.0411C111.334 47.4941 111.021 49.7419 110.387 51.7845C109.753 53.8272 108.834 55.5993 107.632 57.1103C106.43 58.6119 104.972 59.7778 103.258 60.5986C101.545 61.4194 99.6512 61.8298 97.5874 61.8298C96.3188 61.8298 95.1354 61.6805 94.0183 61.382C92.9011 61.0836 91.9544 60.6919 91.1781 60.2068C90.3923 59.7218 89.7296 59.2275 89.1805 58.7052C88.6315 58.1922 87.9025 57.4181 87.0031 56.3921V57.1942C87.0031 58.7145 86.6339 59.8711 85.886 60.6452C85.1475 61.4287 84.2008 61.8204 83.0553 61.8204C81.9098 61.8204 80.9631 61.4287 80.2719 60.6452C79.5808 59.8617 79.2306 58.7145 79.2306 57.1942V21.8727C79.2306 20.2312 79.5619 18.9907 80.2341 18.1512C80.9062 17.3118 81.8435 16.8921 83.0458 16.8921C84.305 16.8921 85.2801 17.2932 85.9617 18.0953C86.6434 18.8974 86.9842 20.0353 86.9842 21.5183L86.9936 21.509ZM87.3913 45.5541C87.3913 48.7719 88.1392 51.2529 89.635 52.9784C91.1308 54.7039 93.0905 55.5713 95.5141 55.5713C97.5779 55.5713 99.3578 54.6852 100.854 52.9131C102.349 51.141 103.097 48.6133 103.097 45.3116C103.097 43.1757 102.785 41.3382 102.16 39.7993C101.535 38.2603 100.655 37.0665 99.5092 36.227C98.3637 35.3876 97.0288 34.9679 95.5046 34.9679C93.9804 34.9679 92.5414 35.3876 91.3201 36.227C90.0989 37.0665 89.1332 38.279 88.4326 39.8739C87.7321 41.4688 87.3818 43.3622 87.3818 45.5541H87.3913Z" fill="#7530DE"/>
<path d="M140.862 47.3638H124.796C124.815 49.2013 125.194 50.8242 125.923 52.2232C126.652 53.6223 127.627 54.6855 128.839 55.3944C130.051 56.1033 131.395 56.4577 132.853 56.4577C133.837 56.4577 134.737 56.3458 135.542 56.1126C136.356 55.8887 137.142 55.5343 137.908 55.0493C138.666 54.5643 139.376 54.042 140.01 53.4917C140.654 52.9414 141.487 52.1859 142.509 51.2345C142.935 50.8801 143.532 50.7029 144.318 50.7029C145.16 50.7029 145.842 50.9268 146.363 51.3838C146.883 51.8408 147.148 52.4844 147.148 53.3145C147.148 54.042 146.855 54.9001 146.277 55.8794C145.69 56.8587 144.819 57.8008 143.645 58.6962C142.472 59.5916 140.995 60.3377 139.224 60.9347C137.444 61.5316 135.409 61.8207 133.099 61.8207C127.826 61.8207 123.717 60.3377 120.792 57.3717C117.866 54.4057 116.399 50.3858 116.399 45.3026C116.399 42.9148 116.759 40.695 117.478 38.643C118.198 36.6004 119.258 34.8469 120.64 33.3826C122.022 31.9183 123.727 30.799 125.753 30.0155C127.778 29.2321 130.022 28.8403 132.493 28.8403C135.703 28.8403 138.457 29.5119 140.758 30.8456C143.058 32.1794 144.772 33.9049 145.918 36.0221C147.063 38.1394 147.631 40.2939 147.631 42.4858C147.631 44.5191 147.035 45.8435 145.851 46.4405C144.668 47.0374 143.002 47.3452 140.853 47.3452L140.862 47.3638ZM124.796 42.7749H139.688C139.489 40.0048 138.732 37.9342 137.416 36.5631C136.1 35.192 134.368 34.5018 132.228 34.5018C130.088 34.5018 128.498 35.2014 127.192 36.5911C125.876 37.9808 125.08 40.0421 124.796 42.7749Z" fill="#7530DE"/>
<path d="M154.551 56.9144V21.8074C154.551 20.1845 154.921 18.9627 155.65 18.1326C156.379 17.3025 157.373 16.8921 158.613 16.8921C159.853 16.8921 160.856 17.3025 161.623 18.1233C162.381 18.944 162.769 20.1752 162.769 21.8168V56.9237C162.769 58.5653 162.381 59.7965 161.614 60.6172C160.847 61.438 159.844 61.8484 158.622 61.8484C157.401 61.8484 156.445 61.4194 155.687 60.5706C154.93 59.7218 154.561 58.5093 154.561 56.9237L154.551 56.9144Z" fill="#7530DE"/>
<path d="M191.719 58.1269L184.468 46.3842L180.009 50.5347V56.9704C180.009 58.528 179.592 59.7312 178.759 60.5706C177.926 61.41 176.97 61.8298 175.881 61.8298C174.622 61.8298 173.628 61.41 172.899 60.5893C172.179 59.7591 171.819 58.5373 171.819 56.9144V22.4044C171.819 20.6043 172.17 19.2332 172.87 18.3005C173.571 17.3584 174.574 16.8921 175.881 16.8921C177.187 16.8921 178.144 17.3211 178.891 18.1699C179.639 19.0187 180.009 20.2778 180.009 21.938V41.5621L189.249 32.0112C190.394 30.8267 191.265 30.0152 191.871 29.5769C192.477 29.1385 193.206 28.924 194.067 28.924C195.09 28.924 195.942 29.2411 196.623 29.8847C197.305 30.5282 197.646 31.3303 197.646 32.3004C197.646 33.4849 196.529 35.0705 194.304 37.0478L189.94 40.9932L198.365 54.0417C198.99 55.0117 199.435 55.7485 199.7 56.2522C199.965 56.7558 200.107 57.2315 200.107 57.6885C200.107 58.9757 199.748 59.983 199.038 60.7292C198.328 61.4753 197.39 61.8391 196.226 61.8391C195.222 61.8391 194.446 61.5686 193.906 61.037C193.367 60.5053 192.628 59.5353 191.71 58.1269H191.719Z" fill="#7530DE"/>
<path d="M225.006 57.2696C223.018 58.7899 221.096 59.9371 219.241 60.6926C217.385 61.4574 215.302 61.8305 212.992 61.8305C210.891 61.8305 209.035 61.4201 207.445 60.5993C205.854 59.7786 204.623 58.6686 203.762 57.2602C202.9 55.8612 202.465 54.3316 202.465 52.69C202.465 50.4795 203.175 48.5861 204.604 47.0285C206.024 45.4709 207.984 44.4169 210.474 43.8853C210.995 43.764 212.292 43.5029 214.356 43.0832C216.419 42.6634 218.19 42.2904 219.667 41.9453C221.144 41.6002 222.744 41.1804 224.467 40.6861C224.362 38.5502 223.927 36.9833 223.16 35.9853C222.384 34.9873 220.784 34.493 218.36 34.493C216.277 34.493 214.706 34.7821 213.655 35.351C212.604 35.92 211.695 36.7874 210.947 37.9253C210.2 39.0725 209.66 39.828 209.357 40.1918C209.045 40.5555 208.382 40.7421 207.359 40.7421C206.441 40.7421 205.636 40.4529 204.964 39.8653C204.292 39.2871 203.961 38.5409 203.961 37.6268C203.961 36.1998 204.472 34.8194 205.494 33.4763C206.517 32.1332 208.117 31.0233 210.275 30.1559C212.443 29.2885 215.141 28.8501 218.37 28.8501C221.977 28.8501 224.817 29.2698 226.89 30.1092C228.954 30.9487 230.412 32.2824 231.264 34.1012C232.116 35.92 232.542 38.3264 232.542 41.339C232.542 43.2324 232.542 44.846 232.523 46.1704C232.514 47.4948 232.495 48.9685 232.476 50.5914C232.476 52.1117 232.731 53.6973 233.243 55.3482C233.754 56.9991 234.009 58.0624 234.009 58.5381C234.009 59.3682 233.612 60.1237 232.826 60.8045C232.031 61.4854 231.131 61.8305 230.128 61.8305C229.285 61.8305 228.452 61.4388 227.629 60.6553C226.805 59.8718 225.934 58.7432 225.006 57.2602V57.2696ZM224.467 45.5548C223.264 45.9932 221.513 46.4502 219.212 46.9352C216.912 47.4202 215.321 47.7747 214.441 47.9985C213.56 48.2224 212.718 48.67 211.913 49.3323C211.108 49.9945 210.711 50.9179 210.711 52.1024C210.711 53.2869 211.184 54.3689 212.121 55.227C213.059 56.085 214.299 56.5141 215.823 56.5141C217.451 56.5141 218.947 56.1597 220.32 55.4601C221.693 54.7606 222.706 53.8559 223.349 52.746C224.088 51.5241 224.467 49.5095 224.467 46.702V45.5455V45.5548Z" fill="#7530DE"/>
<path d="M86.8137 68.0898C87.571 68.0898 88.1391 68.2764 88.6124 68.7427C88.9911 69.2091 89.1805 69.862 89.1805 70.7947V75.6447H88.1391V70.7947C88.1391 70.2351 88.0444 69.7687 87.7604 69.3956C87.4764 69.1158 87.1924 68.9293 86.6243 68.9293C86.0563 68.9293 85.4883 69.1158 85.1096 69.5822C84.8256 69.9552 84.6362 70.6081 84.6362 71.4476V75.6447H83.5948V70.7947C83.5948 70.4216 83.5948 70.0485 83.4055 69.7687C83.2161 69.4889 83.1215 69.3024 82.9321 69.2091C82.7428 69.1158 82.4588 69.0225 82.0801 69.0225C81.6067 69.0225 81.228 69.1158 80.944 69.3024C80.66 69.4889 80.4707 69.7687 80.376 70.2351C80.2813 70.6081 80.1867 71.1678 80.1867 71.7274V75.6447H79.1453V68.1831H79.9973L80.1867 69.2091C80.2813 68.9293 80.4707 68.7427 80.7547 68.5562C80.944 68.3697 81.228 68.2764 81.5121 68.1831C81.7961 68.1831 82.0801 68.0898 82.3641 68.0898C82.9321 68.0898 83.3108 68.1831 83.6895 68.3697C84.0682 68.5562 84.3522 68.9293 84.4469 69.3024C84.6362 68.836 85.0149 68.5562 85.3936 68.3697C85.7723 68.1831 86.2456 68.0898 86.719 68.0898H86.8137Z" fill="#7530DE"/>
<path d="M94.009 68.0864C94.8611 68.0864 95.4291 68.273 95.9025 68.6461C96.2811 69.0191 96.4705 69.672 96.4705 70.6047V75.6413H95.7131L95.5238 74.5221C95.3344 74.8019 95.1451 74.9884 94.8611 75.175C94.577 75.3615 94.3877 75.4548 94.1037 75.5481C93.8197 75.5481 93.441 75.6413 93.0623 75.6413C92.6836 75.6413 92.2103 75.6413 91.9262 75.3615C91.5476 75.175 91.3582 74.9884 91.1689 74.6154C90.9795 74.3356 90.8849 73.8692 90.8849 73.4028C90.8849 72.6567 91.1689 72.0971 91.7369 71.724C92.3049 71.3509 93.157 71.0711 94.293 71.0711H95.5238V70.6047C95.5238 69.9518 95.4291 69.4855 95.1451 69.2057C94.8611 68.9259 94.4824 68.8326 94.009 68.8326C93.5357 68.8326 93.2516 68.8326 92.9676 69.0191C92.5889 69.1124 92.3049 69.299 92.0209 69.3922L91.7369 68.5528C92.0209 68.3663 92.3996 68.273 92.873 68.0864C93.2516 67.9932 93.725 67.8999 94.1984 67.8999L94.009 68.0864ZM95.4291 72.0038H94.3877C93.5357 72.0038 92.873 72.2836 92.4943 72.4701C92.1156 72.75 91.9262 73.123 91.9262 73.5894C91.9262 74.0557 92.0209 74.3356 92.3049 74.5221C92.5889 74.7086 92.873 74.8019 93.2516 74.8019C93.9144 74.8019 94.3877 74.6154 94.7664 74.2423C95.1451 73.8692 95.3344 73.3096 95.3344 72.5634V71.9105L95.4291 72.0038Z" fill="#7530DE"/>
<path d="M101.866 68.0898H102.718V69.1158H101.866C101.582 69.1158 101.298 69.1158 101.109 69.3024C100.92 69.4889 100.636 69.5822 100.446 69.862C100.257 70.1418 100.067 70.3283 99.9728 70.7014C99.8782 70.9812 99.7835 71.3543 99.7835 71.7274V75.738H98.7421V68.2764H99.5941V69.6754H99.7835C99.9728 69.3956 100.067 69.1158 100.352 68.9293C100.541 68.7427 100.825 68.5562 101.109 68.3697C101.393 68.2764 101.677 68.1831 102.056 68.1831L101.866 68.0898Z" fill="#7530DE"/>
<path d="M105.085 65.0103V71.819C105.085 71.7257 105.275 71.5392 105.464 71.2594C105.653 71.0728 105.748 70.8863 105.937 70.6998L108.304 68.0882H109.535L106.695 71.2594L109.724 75.5498H108.399L105.937 72.0055L105.085 72.845V75.5498H104.044V64.917H105.085V65.0103Z" fill="#7530DE"/>
<path d="M113.606 68.0898C114.174 68.0898 114.742 68.2764 115.121 68.5562C115.594 68.836 115.878 69.2091 116.068 69.7687C116.257 70.2351 116.446 70.888 116.446 71.5408V72.287H111.618C111.618 73.1264 111.807 73.8726 112.281 74.2457C112.659 74.712 113.227 74.8986 113.985 74.8986C114.742 74.8986 114.837 74.8986 115.121 74.8053C115.5 74.8053 115.784 74.6188 116.162 74.4322V75.4582C115.784 75.6447 115.5 75.738 115.121 75.8313C114.742 75.8313 114.363 75.9246 113.89 75.9246C113.227 75.9246 112.659 75.738 112.091 75.4582C111.618 75.1784 111.239 74.712 110.955 74.1524C110.671 73.5928 110.577 72.8466 110.577 72.1005C110.577 71.3543 110.671 70.6081 110.955 70.0485C111.239 69.4889 111.523 69.0225 111.997 68.6495C112.47 68.3697 113.038 68.1831 113.606 68.1831V68.0898ZM113.606 69.0225C113.038 69.0225 112.565 69.2091 112.281 69.5822C111.902 69.9552 111.713 70.5149 111.713 71.261H115.405C115.405 70.7947 115.405 70.4216 115.216 70.0485C115.121 69.6754 114.932 69.4889 114.648 69.3024C114.363 69.1158 114.079 69.0225 113.701 69.0225H113.606Z" fill="#7530DE"/>
<path d="M120.612 74.8963H121.18C121.369 74.8963 121.558 74.8963 121.653 74.803V75.6424C121.558 75.6424 121.369 75.7357 121.18 75.829C120.99 75.9223 120.706 75.829 120.517 75.829C120.138 75.829 119.759 75.829 119.475 75.6424C119.191 75.4559 118.907 75.2694 118.718 74.8963C118.529 74.5232 118.434 74.1501 118.434 73.4972V69.1135H117.393V68.5539L118.434 68.0875L118.813 66.502H119.475V68.2741H121.558V69.1135H119.475V73.4972C119.475 73.9636 119.57 74.3367 119.759 74.5232C119.949 74.7097 120.233 74.8963 120.612 74.8963Z" fill="#7530DE"/>
<path d="M123.546 65.3833C123.736 65.3833 123.83 65.3833 124.02 65.5698C124.114 65.6631 124.209 65.8497 124.209 66.1295C124.209 66.4093 124.209 66.5958 124.02 66.6891C123.925 66.7824 123.736 66.8756 123.546 66.8756C123.357 66.8756 123.168 66.8756 123.073 66.6891C122.978 66.5958 122.884 66.4093 122.884 66.1295C122.884 65.8497 122.884 65.6631 123.073 65.5698C123.262 65.4766 123.357 65.3833 123.546 65.3833ZM124.114 68.1814V75.643H123.073V68.1814H124.114Z" fill="#7530DE"/>
<path d="M129.7 68.0898C130.552 68.0898 131.12 68.2764 131.593 68.7427C132.067 69.2091 132.256 69.862 132.256 70.7947V75.6447H131.215V70.888C131.215 70.2351 131.12 69.7687 130.836 69.4889C130.552 69.2091 130.173 69.0225 129.605 69.0225C129.037 69.0225 128.28 69.3024 127.996 69.7687C127.712 70.2351 127.522 70.888 127.522 71.8207V75.738H126.481V68.2764H127.333L127.522 69.3956C127.712 69.1158 127.901 68.9293 128.09 68.7427C128.28 68.5562 128.564 68.4629 128.848 68.3697C129.132 68.3697 129.416 68.2764 129.794 68.2764L129.7 68.0898Z" fill="#7530DE"/>
<path d="M136.327 79.0025C135.38 79.0025 134.717 78.8159 134.149 78.4429C133.581 78.0698 133.392 77.6034 133.392 76.9505C133.392 76.2976 133.487 76.1111 133.771 75.738C134.055 75.3649 134.433 75.1784 134.907 75.0851C134.717 75.0851 134.528 74.8986 134.433 74.712C134.339 74.5255 134.244 74.339 134.244 74.0591C134.244 73.7793 134.244 73.5928 134.433 73.313C134.623 73.1264 134.812 72.9399 135.096 72.7534C134.717 72.5668 134.433 72.287 134.244 71.9139C134.055 71.5408 133.865 71.0745 133.865 70.6081C133.865 70.1418 133.96 69.5822 134.149 69.2091C134.339 68.836 134.623 68.5562 135.096 68.3697C135.569 68.1831 135.948 68.0898 136.516 68.0898C137.084 68.0898 136.8 68.0898 136.895 68.0898H140.019V68.836L138.694 69.0225C138.788 69.2091 138.883 69.3956 138.978 69.6754C138.978 69.9552 139.072 70.2351 139.072 70.5149C139.072 71.261 138.788 71.8207 138.315 72.287C137.842 72.7534 137.179 72.9399 136.327 72.9399C135.475 72.9399 135.948 72.9399 135.759 72.9399C135.569 73.0332 135.38 73.2197 135.285 73.313C135.191 73.4995 135.096 73.5928 135.096 73.8726C135.096 74.1524 135.096 74.1524 135.191 74.2457C135.191 74.2457 135.38 74.4322 135.569 74.4322H137.368C138.126 74.4322 138.694 74.6188 139.167 74.8986C139.546 75.2717 139.735 75.738 139.735 76.3909C139.735 77.0438 139.451 77.8832 138.788 78.2563C138.126 78.7227 137.274 78.9092 136.043 78.9092L136.327 79.0025ZM136.421 78.0698C136.99 78.0698 137.463 78.0698 137.842 77.8832C138.22 77.79 138.504 77.6034 138.694 77.3236C138.883 77.0438 138.978 76.8573 138.978 76.4842C138.978 76.1111 138.978 75.9246 138.788 75.8313C138.599 75.738 138.504 75.5515 138.22 75.5515H136.043C135.759 75.5515 135.475 75.5515 135.191 75.738C135.001 75.8313 134.812 76.0178 134.623 76.2044C134.433 76.3909 134.433 76.6707 134.433 76.9505C134.433 77.2303 134.623 77.6967 134.907 77.8832C135.191 78.0698 135.664 78.163 136.327 78.163L136.421 78.0698ZM136.705 72.1937C137.179 72.1937 137.558 72.1005 137.842 71.8207C138.126 71.5408 138.22 71.1678 138.22 70.6081C138.22 70.0485 138.126 69.6754 137.842 69.3956C137.558 69.1158 137.179 69.0225 136.705 69.0225C136.232 69.0225 135.853 69.2091 135.569 69.4889C135.285 69.7687 135.191 70.2351 135.191 70.7947C135.191 71.3543 135.285 71.7274 135.569 72.0072C135.853 72.287 136.232 72.3803 136.705 72.3803V72.1937Z" fill="#7530DE"/>
<path d="M148.161 65.5698C148.634 65.5698 149.108 65.5698 149.486 65.8496C149.865 66.1294 150.149 66.2227 150.338 66.5958C150.528 66.8756 150.622 67.342 150.622 67.715C150.622 68.0881 150.433 68.8343 150.054 69.2074C149.676 69.5804 149.202 69.9535 148.54 70.3266L151.38 73.0315C151.664 72.7516 151.853 72.3786 152.042 72.0055C152.232 71.6324 152.326 71.166 152.421 70.793H153.557C153.368 71.3526 153.179 71.9122 152.989 72.4718C152.8 72.9382 152.421 73.4045 152.137 73.7776L154.125 75.7363H152.61L151.38 74.5238C151.096 74.8036 150.812 74.9901 150.433 75.2699C150.054 75.4565 149.676 75.643 149.297 75.7363C148.918 75.8296 148.445 75.9228 147.877 75.9228C147.309 75.9228 146.646 75.8296 146.173 75.643C145.699 75.4565 145.321 75.0834 145.037 74.7103C144.753 74.3372 144.658 73.7776 144.658 73.218C144.658 72.6584 144.658 72.2853 144.942 72.0055C145.131 71.6324 145.415 71.3526 145.699 71.0728C145.983 70.793 146.457 70.5132 146.93 70.3266C146.741 70.0468 146.552 69.8603 146.362 69.5804C146.173 69.3006 145.983 69.1141 145.889 68.8343C145.794 68.5545 145.699 68.2747 145.699 67.9016C145.699 67.5285 145.794 67.0621 145.983 66.7823C146.173 66.5025 146.457 66.2227 146.836 66.0362C147.214 65.8496 147.688 65.7564 148.161 65.7564V65.5698ZM147.498 70.8862C147.12 71.0728 146.836 71.2593 146.552 71.4459C146.267 71.6324 146.078 71.9122 145.983 72.0987C145.889 72.2853 145.794 72.6584 145.794 73.0315C145.794 73.5911 145.983 73.9642 146.362 74.3372C146.741 74.617 147.214 74.8036 147.782 74.8036C148.35 74.8036 148.918 74.7103 149.392 74.5238C149.865 74.3372 150.244 74.0574 150.528 73.7776L147.498 70.8862ZM148.066 66.5025C147.688 66.5025 147.309 66.5958 147.025 66.7823C146.741 66.9689 146.646 67.342 146.646 67.715C146.646 68.0881 146.646 68.3679 146.93 68.6477C147.12 68.9276 147.404 69.3006 147.782 69.5804C148.35 69.3006 148.729 68.9276 149.013 68.6477C149.297 68.3679 149.392 67.9949 149.392 67.6218C149.392 67.2487 149.297 66.9689 149.013 66.7823C148.729 66.5958 148.445 66.4093 148.066 66.4093V66.5025Z" fill="#7530DE"/>
<path d="M159.995 65.3833C160.184 65.3833 160.374 65.3833 160.468 65.5698C160.563 65.7564 160.658 65.8497 160.658 66.1295C160.658 66.4093 160.658 66.5958 160.468 66.6891C160.374 66.7824 160.184 66.8756 159.995 66.8756C159.806 66.8756 159.616 66.8756 159.522 66.6891C159.427 66.5958 159.332 66.4093 159.332 66.1295C159.332 65.8497 159.332 65.6631 159.522 65.5698C159.711 65.4766 159.806 65.3833 159.995 65.3833ZM160.563 68.1814V75.643H159.427V68.1814H160.563Z" fill="#7530DE"/>
<path d="M166.528 68.0898C167.38 68.0898 168.137 68.2764 168.61 68.7427C169.084 69.2091 169.273 69.862 169.273 70.7947V75.6447H168.137V70.888C168.137 70.2351 167.948 69.7687 167.664 69.4889C167.38 69.2091 166.906 69.0225 166.338 69.0225C165.77 69.0225 164.918 69.3024 164.539 69.7687C164.161 70.2351 164.066 70.888 164.066 71.8207V75.738H162.93V68.2764H163.877L164.066 69.3956C164.255 69.1158 164.445 68.9293 164.634 68.7427C164.823 68.5562 165.202 68.4629 165.486 68.3697C165.77 68.3697 166.149 68.2764 166.433 68.2764L166.528 68.0898Z" fill="#7530DE"/>
<path d="M174.101 74.8963H174.669C174.859 74.8963 175.048 74.8963 175.143 74.803V75.6424C175.048 75.6424 174.859 75.7357 174.575 75.829H173.912C173.533 75.829 173.155 75.829 172.776 75.6424C172.397 75.4559 172.208 75.2694 172.019 74.8963C171.829 74.5232 171.734 74.1501 171.734 73.4972V69.1135H170.693V68.5539L171.734 68.0875L172.208 66.502H172.871V68.2741H175.048V69.1135H172.871V73.4972C172.871 73.9636 172.965 74.3367 173.155 74.5232C173.344 74.7097 173.628 74.8963 174.007 74.8963H174.101Z" fill="#7530DE"/>
<path d="M179.592 68.0898C180.254 68.0898 180.822 68.2764 181.296 68.5562C181.769 68.836 182.148 69.2091 182.337 69.7687C182.621 70.2351 182.716 70.888 182.716 71.5408V72.287H177.509C177.509 73.1264 177.698 73.8726 178.172 74.2457C178.645 74.712 179.213 74.8986 179.97 74.8986C180.728 74.8986 180.917 74.8986 181.201 74.8053C181.58 74.8053 181.958 74.6188 182.337 74.4322V75.4582C181.958 75.6447 181.58 75.738 181.201 75.8313C180.822 75.8313 180.349 75.9246 179.876 75.9246C179.118 75.9246 178.55 75.738 177.982 75.4582C177.414 75.1784 177.035 74.712 176.751 74.1524C176.467 73.5928 176.278 72.8466 176.278 72.1005C176.278 71.3543 176.373 70.6081 176.657 70.0485C176.941 69.4889 177.319 69.0225 177.793 68.6495C178.266 68.3697 178.834 68.1831 179.592 68.1831V68.0898ZM179.592 69.0225C179.024 69.0225 178.456 69.2091 178.172 69.5822C177.793 69.9552 177.603 70.5149 177.509 71.261H181.485C181.485 70.7947 181.485 70.4216 181.296 70.0485C181.201 69.6754 180.917 69.4889 180.633 69.3024C180.349 69.1158 179.97 69.0225 179.592 69.0225Z" fill="#7530DE"/>
<path d="M185.746 75.6431H184.609V65.0103H185.746V75.6431Z" fill="#7530DE"/>
<path d="M189.343 75.6431H188.207V65.0103H189.343V75.6431Z" fill="#7530DE"/>
<path d="M192.373 65.3833C192.562 65.3833 192.751 65.3833 192.846 65.5698C192.941 65.7564 193.035 65.8497 193.035 66.1295C193.035 66.4093 193.035 66.5958 192.846 66.6891C192.751 66.7824 192.562 66.8756 192.373 66.8756C192.183 66.8756 191.994 66.8756 191.899 66.6891C191.805 66.5958 191.71 66.4093 191.71 66.1295C191.71 65.8497 191.71 65.6631 191.899 65.5698C192.089 65.4766 192.183 65.3833 192.373 65.3833ZM192.941 68.1814V75.643H191.805V68.1814H192.941Z" fill="#7530DE"/>
<path d="M197.39 79.0025C196.348 79.0025 195.591 78.8159 195.118 78.4429C194.644 78.0698 194.266 77.6034 194.266 76.9505C194.266 76.2976 194.455 76.1111 194.739 75.738C195.023 75.3649 195.496 75.1784 195.97 75.0851C195.78 75.0851 195.591 74.8986 195.496 74.712C195.402 74.5255 195.307 74.339 195.307 74.0591C195.307 73.7793 195.307 73.5928 195.496 73.313C195.686 73.1264 195.875 72.9399 196.159 72.7534C195.78 72.5668 195.402 72.287 195.212 71.9139C194.928 71.5408 194.834 71.0745 194.834 70.6081C194.834 70.1418 194.928 69.5822 195.212 69.2091C195.496 68.836 195.78 68.5562 196.159 68.3697C196.632 68.1831 197.106 68.0898 197.674 68.0898C198.242 68.0898 197.958 68.0898 198.052 68.0898H201.271V68.836L199.851 69.0225C199.946 69.2091 200.135 69.3956 200.23 69.6754C200.325 69.9552 200.325 70.2351 200.325 70.5149C200.325 71.261 200.041 71.8207 199.567 72.287C199.094 72.7534 198.337 72.9399 197.484 72.9399C196.632 72.9399 197.011 72.9399 196.822 72.9399C196.632 73.0332 196.443 73.2197 196.348 73.313C196.254 73.4995 196.159 73.5928 196.159 73.8726C196.159 74.1524 196.159 74.1524 196.254 74.2457C196.254 74.2457 196.443 74.4322 196.632 74.4322H198.526C199.378 74.4322 199.946 74.6188 200.419 74.8986C200.893 75.2717 201.082 75.738 201.082 76.3909C201.082 77.0438 200.703 77.8832 200.041 78.2563C199.378 78.7227 198.337 78.9092 197.106 78.9092L197.39 79.0025ZM197.484 78.0698C198.147 78.0698 198.621 78.0698 198.999 77.8832C199.378 77.79 199.757 77.6034 199.946 77.3236C200.135 77.0438 200.23 76.8573 200.23 76.4842C200.23 76.1111 200.23 75.9246 200.041 75.8313C199.946 75.6447 199.662 75.5515 199.473 75.5515H197.2C196.822 75.5515 196.538 75.5515 196.348 75.738C196.064 75.8313 195.875 76.0178 195.78 76.2044C195.686 76.3909 195.591 76.6707 195.591 76.9505C195.591 77.2303 195.78 77.6967 196.064 77.8832C196.443 78.0698 196.916 78.163 197.579 78.163L197.484 78.0698ZM197.768 72.1937C198.337 72.1937 198.715 72.1005 198.999 71.8207C199.283 71.5408 199.378 71.1678 199.378 70.6081C199.378 70.0485 199.283 69.6754 198.999 69.3956C198.715 69.1158 198.337 69.0225 197.768 69.0225C197.2 69.0225 196.822 69.2091 196.538 69.4889C196.254 69.7687 196.159 70.2351 196.159 70.7947C196.159 71.3543 196.348 71.7274 196.632 72.0072C196.916 72.287 197.295 72.3803 197.863 72.3803L197.768 72.1937Z" fill="#7530DE"/>
<path d="M205.91 68.0898C206.573 68.0898 207.141 68.2764 207.614 68.5562C208.088 68.836 208.466 69.2091 208.656 69.7687C208.94 70.2351 209.034 70.888 209.034 71.5408V72.287H203.828C203.828 73.1264 204.017 73.8726 204.49 74.2457C204.964 74.712 205.532 74.8986 206.289 74.8986C207.046 74.8986 207.236 74.8986 207.52 74.8053C207.898 74.8053 208.277 74.6188 208.656 74.4322V75.4582C208.277 75.6447 207.898 75.738 207.52 75.8313C207.141 75.8313 206.668 75.9246 206.194 75.9246C205.437 75.9246 204.869 75.738 204.301 75.4582C203.733 75.1784 203.354 74.712 203.07 74.1524C202.786 73.5928 202.597 72.8466 202.597 72.1005C202.597 71.3543 202.691 70.6081 202.975 70.0485C203.259 69.4889 203.638 69.0225 204.112 68.6495C204.585 68.3697 205.153 68.1831 205.91 68.1831V68.0898ZM205.91 69.0225C205.342 69.0225 204.774 69.2091 204.49 69.5822C204.112 69.9552 203.922 70.5149 203.828 71.261H207.804C207.804 70.7947 207.804 70.4216 207.614 70.0485C207.52 69.6754 207.236 69.4889 206.952 69.3024C206.668 69.1158 206.289 69.0225 205.91 69.0225Z" fill="#7530DE"/>
<path d="M214.526 68.0898C215.378 68.0898 216.135 68.2764 216.608 68.7427C217.082 69.2091 217.271 69.862 217.271 70.7947V75.6447H216.135V70.888C216.135 70.2351 215.946 69.7687 215.662 69.4889C215.378 69.2091 214.904 69.0225 214.336 69.0225C213.768 69.0225 212.916 69.3024 212.537 69.7687C212.159 70.2351 212.064 70.888 212.064 71.8207V75.738H210.928V68.2764H211.875L212.064 69.3956C212.253 69.1158 212.443 68.9293 212.632 68.7427C212.821 68.5562 213.2 68.4629 213.484 68.3697C213.768 68.3697 214.147 68.2764 214.431 68.2764L214.526 68.0898Z" fill="#7530DE"/>
<path d="M222.668 75.738C222.005 75.738 221.342 75.6448 220.869 75.3649C220.396 75.0851 219.922 74.712 219.638 74.0592C219.354 73.4995 219.165 72.7534 219.165 71.9139C219.165 71.0745 219.354 70.2351 219.638 69.6754C219.922 69.1158 220.396 68.6495 220.869 68.3697C221.342 68.0899 222.005 67.9966 222.668 67.9966C223.331 67.9966 223.425 67.9966 223.804 68.0899C224.183 68.0899 224.467 68.2764 224.656 68.3697L224.277 69.3024C224.088 69.3024 223.804 69.1158 223.52 69.0226C223.236 69.0226 222.952 68.9293 222.668 68.9293C222.1 68.9293 221.721 69.0226 221.342 69.3024C220.964 69.4889 220.774 69.862 220.585 70.3283C220.396 70.7947 220.301 71.261 220.301 71.9139C220.301 72.5668 220.301 73.0332 220.585 73.4995C220.774 73.9659 220.964 74.2457 221.342 74.4322C221.721 74.6188 222.1 74.8053 222.573 74.8053C223.047 74.8053 223.331 74.8053 223.615 74.712C223.899 74.712 224.183 74.5255 224.467 74.4322V75.4582C224.183 75.5515 223.899 75.6447 223.615 75.738C223.331 75.738 222.952 75.8313 222.478 75.8313L222.668 75.738Z" fill="#7530DE"/>
<path d="M229.295 68.0898C229.957 68.0898 230.525 68.2764 230.999 68.5562C231.472 68.836 231.851 69.2091 232.04 69.7687C232.324 70.2351 232.419 70.888 232.419 71.5408V72.287H227.212C227.212 73.1264 227.401 73.8726 227.874 74.2457C228.348 74.712 228.916 74.8986 229.673 74.8986C230.431 74.8986 230.62 74.8986 230.904 74.8053C231.283 74.8053 231.661 74.6188 232.04 74.4322V75.4582C231.661 75.6447 231.283 75.738 230.904 75.8313C230.525 75.8313 230.052 75.9246 229.579 75.9246C228.821 75.9246 228.253 75.738 227.685 75.4582C227.117 75.1784 226.738 74.712 226.454 74.1524C226.17 73.5928 225.981 72.8466 225.981 72.1005C225.981 71.3543 226.076 70.6081 226.36 70.0485C226.644 69.4889 227.022 69.0225 227.496 68.6495C227.969 68.3697 228.537 68.1831 229.295 68.1831V68.0898ZM229.295 69.0225C228.726 69.0225 228.158 69.2091 227.874 69.5822C227.496 69.9552 227.306 70.5149 227.212 71.261H231.188C231.188 70.7947 231.188 70.4216 230.999 70.0485C230.904 69.6754 230.62 69.4889 230.336 69.3024C230.052 69.1158 229.673 69.0225 229.295 69.0225Z" fill="#7530DE"/>
</g>
<defs>
<clipPath id="clip0_220_1866">
<rect width="234" height="79" fill="white"/>
</clipPath>
</defs>
</svg>
