<svg width="17" height="24" viewBox="0 0 17 24" fill="none" xmlns="http://www.w3.org/2000/svg">
<path d="M2 1C2 0.447715 1.55228 0 1 0C0.447715 0 0 0.447715 0 1H2ZM1 16H0V17H1V16ZM16.7071 16.7071C17.0976 16.3166 17.0976 15.6834 16.7071 15.2929L10.3431 8.92893C9.95262 8.53841 9.31946 8.53841 8.92893 8.92893C8.53841 9.31946 8.53841 9.95262 8.92893 10.3431L14.5858 16L8.92893 21.6569C8.53841 22.0474 8.53841 22.6805 8.92893 23.0711C9.31946 23.4616 9.95262 23.4616 10.3431 23.0711L16.7071 16.7071ZM1 1H0V16H1H2V1H1ZM1 16V17H16V16V15H1V16Z" fill="black"/>
</svg>
