<svg width="18" height="18" viewBox="0 0 18 18" fill="none" xmlns="http://www.w3.org/2000/svg">
<path d="M0.93934 15.0819C0.353553 15.6677 0.353553 16.6175 0.93934 17.2032C1.52513 17.789 2.47487 17.789 3.06066 17.2032L2 16.1426L0.93934 15.0819ZM17.6421 2.00044C17.6421 1.17202 16.9706 0.500443 16.1421 0.500443H2.64214C1.81371 0.500443 1.14214 1.17202 1.14214 2.00044C1.14214 2.82887 1.81371 3.50044 2.64214 3.50044H14.6421V15.5004C14.6421 16.3289 15.3137 17.0004 16.1421 17.0004C16.9706 17.0004 17.6421 16.3289 17.6421 15.5004V2.00044ZM2 16.1426L3.06066 17.2032L17.2028 3.0611L16.1421 2.00044L15.0815 0.939783L0.93934 15.0819L2 16.1426Z" fill="#201541"/>
</svg>
