<svg xmlns="http://www.w3.org/2000/svg" version="1.1" xmlns:xlink="http://www.w3.org/1999/xlink" width="1000" height="1000"><g clip-path="url(#SvgjsClipPath1119)"><rect width="1000" height="1000" fill="#ffffff"></rect><g transform="matrix(3.0120481927710845,0,0,3.0120481927710845,0,340.3614457831325)"><svg xmlns="http://www.w3.org/2000/svg" version="1.1" xmlns:xlink="http://www.w3.org/1999/xlink" width="332" height="106"><svg width="332" height="106" viewBox="0 0 332 106" fill="none" xmlns="http://www.w3.org/2000/svg">
<path fill-rule="evenodd" clip-rule="evenodd" d="M0 89.8611V76.476L10.8366 65.5974C12.6776 63.7491 15.6623 63.7491 17.5033 65.5974C19.3442 67.4454 19.3442 70.4418 17.5033 72.2899L0 89.8611ZM17.1148 106H14.6494C8.78808 106 3.73075 102.538 1.38874 97.5363L23.289 75.5509C26.1539 72.675 30.7992 72.675 33.6642 75.5509L35.3674 77.2609C38.2324 80.1369 38.2324 84.8001 35.3674 87.6764L17.1148 106ZM39.467 106H26.1337L41.7294 90.3437C43.5704 88.4957 46.5552 88.4957 48.396 90.3437C50.237 92.1919 50.237 95.1881 48.396 97.0364L39.467 106ZM72.6077 106H48.4507L82.2488 72.0707C85.114 69.1945 89.759 69.1945 92.6242 72.0707L94.3272 73.7805C97.1924 76.6567 97.1924 81.3199 94.3272 84.1962L72.6077 106ZM105.397 83.0382V91.2668C105.397 99.4037 98.8381 106 90.7474 106H81.6336L102.846 84.7051C103.596 83.9525 104.467 83.3969 105.397 83.0382ZM105.397 16.589V29.9742L94.5572 40.8559C92.7165 42.7039 89.7315 42.7039 87.8907 40.8559C86.0497 39.0076 86.0497 36.0114 87.8907 34.1632L105.397 16.589ZM88.7306 0H90.7474C96.7288 0 101.873 3.60524 104.149 8.77291L82.105 30.9021C79.2398 33.7783 74.5948 33.7783 71.7296 30.9021L70.0266 29.1923C67.1614 26.3161 67.1614 21.6529 70.0266 18.7767L88.7306 0ZM66.3772 0H79.7107L63.6646 16.1084C61.8236 17.9565 58.8388 17.9565 56.9978 16.1084C55.1568 14.2603 55.1568 11.2639 56.9978 9.41584L66.3772 0ZM33.2375 0H57.3943L23.1451 34.3823C20.28 37.2585 15.6348 37.2585 12.7697 34.3823L11.0666 32.6725C8.20152 29.7963 8.20152 25.1332 11.0666 22.257L33.2375 0ZM24.2128 0L2.5496 21.7474C1.80027 22.4996 0.929172 23.0551 0 23.4138V14.7332C0 6.59629 6.55876 0 14.6494 0H24.2128Z" fill="#201541"></path>
<g clip-path="url(#clip0_549_657)">
<path fill-rule="evenodd" clip-rule="evenodd" d="M236.911 12.7204C241.886 12.7204 245.491 14.0984 248.726 21.6563C250.613 26.0659 267.677 71.0951 272.398 83.9637C273.104 85.8823 273.305 86.8045 272.799 87.4723C272.335 88.0871 270.881 87.9705 269.489 87.9705H261.69C260.657 87.9705 260.13 87.2391 259.824 86.5289L255.303 74.5932C254.976 73.6922 254.818 73.247 254.439 72.9926C254.07 72.7382 253.596 72.7488 252.647 72.7488H226.582C225.012 72.7488 224.063 72.1234 224.654 70.4591C224.843 69.9185 225.918 67.0035 226.34 65.8481C227.257 63.3571 227.847 62.7105 228.764 62.1805C229.681 61.6505 230.851 61.6929 232.716 61.6929H247.114C248.969 61.6929 249.749 61.7247 250.17 61.1099C250.592 60.4951 250.718 59.8378 249.706 56.8274C247.314 49.6724 241.854 34.4082 240.6 31.26C238.555 25.8751 238.144 23.8399 236.911 23.8399C235.678 23.8399 234.993 26.8927 233.749 30.2C227.025 48.2201 219.426 70.4379 213.85 85.9035C213.239 87.5889 212.438 87.9599 211.521 87.9493H203.869C202.236 87.9493 201.667 87.9493 201.361 87.2497C201.055 86.5501 201.635 85.0873 202.805 81.8436C203.5 79.925 223.431 26.7973 226.677 20.0769C228.68 15.964 230.714 12.6992 236.911 12.6992V12.7204Z" fill="#1F1440"></path>
<path fill-rule="evenodd" clip-rule="evenodd" d="M330.177 15.4761C329.745 15.0415 329.059 15.0415 327.668 15.0415H262.522C261.131 15.0415 260.446 15.0415 260.014 15.4761C259.582 15.9107 259.582 16.5997 259.582 17.9883V23.14C259.582 24.5286 259.582 25.2176 260.014 25.6522C260.446 26.0868 261.131 26.0868 262.522 26.0868H327.668C329.059 26.0868 329.745 26.0868 330.177 25.6522C330.609 25.2176 330.609 24.5286 330.609 23.14V17.9883C330.609 16.5997 330.609 15.9107 330.177 15.4761ZM289.167 30.9416C288.735 31.3763 288.735 32.0653 288.735 33.4539V85.2672C288.735 86.6558 288.735 87.3448 289.167 87.7794C289.599 88.214 290.284 88.214 291.675 88.214H298.537C299.928 88.214 300.613 88.214 301.045 87.7794C301.477 87.3448 301.477 86.6558 301.477 85.2672V33.4645C301.477 32.0759 301.477 31.3763 301.045 30.9523C300.613 30.5176 299.917 30.5176 298.537 30.5176H291.675C290.284 30.5176 289.599 30.5176 289.167 30.9523V30.9416Z" fill="#1F1440"></path>
<path fill-rule="evenodd" clip-rule="evenodd" d="M190.589 99.3232C190.947 99.0794 191.116 98.6448 191.464 97.765L197.777 81.6316C198.378 79.8296 198.757 79.0346 198.336 78.3986C197.946 77.7732 197.071 77.7944 194.647 77.7626C191.011 77.7202 190.452 77.5824 190.452 74.8158V18.0946C190.452 16.706 190.452 16.017 190.02 15.5824C189.588 15.1478 188.903 15.1372 187.511 15.1372H180.65C179.259 15.1372 178.574 15.1372 178.142 15.5718C177.71 16.0064 177.71 16.6954 177.71 18.084V85.6067C177.71 86.9953 177.646 87.6737 178.142 88.1189C178.69 88.6065 179.67 88.5111 181.103 88.5111C182.684 88.5111 183.159 88.5853 183.633 89.0305C184.107 89.4757 184.076 90.1117 184.076 91.4897V96.7155C184.076 98.0512 184.076 98.719 184.487 99.143C184.898 99.5564 185.572 99.5564 186.911 99.5564H188.818C189.756 99.5564 190.22 99.5564 190.589 99.3232ZM164.588 88.5535C166.232 88.4899 167.159 88.5111 167.992 88.0023C168.888 87.4511 169.32 86.8469 170.005 85.2992C170.585 84.006 171.101 82.681 171.544 81.3348C172.777 77.7626 171.154 77.7308 167.444 77.7096C158.559 77.6884 149.505 77.6778 149.505 77.6778C145.268 77.593 144.267 77.6566 143.856 77.2432C143.498 76.8934 143.435 76.5648 143.445 74.8899V16.5576C143.445 16.1866 143.298 15.8262 143.034 15.5612C142.771 15.2962 142.412 15.1478 142.043 15.1478H132.094C131.725 15.1478 131.367 15.2962 131.103 15.5612C130.84 15.8262 130.692 16.1866 130.692 16.5576V84.642C130.692 87.2709 131.556 88.5959 134.697 88.5747C134.697 88.5747 161.004 88.6383 164.588 88.5747V88.5535Z" fill="#1F1440"></path>
</g>
<defs>
<clipPath id="clip0_549_657">
<rect width="201.308" height="86.9208" fill="white" transform="translate(130.692 12.7202)"></rect>
</clipPath>
<clipPath id="SvgjsClipPath1119"><rect width="1000" height="1000" x="0" y="0" rx="500" ry="500"></rect></clipPath></defs>
</svg></svg></g></g></svg>