<svg width="315" height="40" viewBox="0 0 315 40" fill="none" xmlns="http://www.w3.org/2000/svg">
<path d="M305.419 37.0416V25.342H307.632V33.0426L312.88 25.342H314.769V37.0416H312.555V29.4402L307.307 37.0416H305.419ZM310.14 24.681C309.542 24.681 309.015 24.5763 308.561 24.367C308.117 24.1577 307.772 23.8492 307.524 23.4416C307.276 23.034 307.137 22.5162 307.106 21.8883H308.948C308.959 22.2518 309.077 22.5272 309.304 22.7145C309.531 22.9018 309.815 22.9954 310.156 22.9954C310.507 22.9954 310.785 22.9018 310.992 22.7145C311.198 22.5272 311.312 22.2518 311.332 21.8883H313.159C313.149 22.5162 313.014 23.034 312.756 23.4416C312.498 23.8492 312.147 24.1577 311.704 24.367C311.26 24.5763 310.739 24.681 310.14 24.681Z" fill="#201541"/>
<path d="M292.665 37.0418V25.3422H294.878V33.0428L300.126 25.3422H302.015V37.0418H299.801V29.4404L294.553 37.0418H292.665Z" fill="#201541"/>
<path d="M282.556 37.0418V25.3422H290.126V27.54H284.77V37.0418H282.556Z" fill="#201541"/>
<path d="M274.297 37.1734C273.172 37.1734 272.202 36.9201 271.387 36.4133C270.582 35.9065 269.963 35.207 269.529 34.3146C269.106 33.4113 268.895 32.3757 268.895 31.2079C268.895 30.0181 269.111 28.9716 269.545 28.0682C269.989 27.1648 270.618 26.4653 271.434 25.9695C272.249 25.4628 273.219 25.2094 274.344 25.2094C275.458 25.2094 276.418 25.4573 277.223 25.953C278.028 26.4488 278.647 27.1428 279.081 28.0351C279.525 28.9275 279.746 29.9686 279.746 31.1584C279.746 32.3261 279.525 33.3672 279.081 34.2816C278.647 35.1849 278.023 35.8955 277.208 36.4133C276.403 36.9201 275.433 37.1734 274.297 37.1734ZM274.328 34.9591C275.071 34.9591 275.675 34.7773 276.14 34.4138C276.604 34.0502 276.939 33.582 277.146 33.0091C277.362 32.4363 277.471 31.8359 277.471 31.2079C277.471 30.7452 277.409 30.288 277.285 29.8364C277.172 29.3847 276.991 28.9771 276.743 28.6135C276.496 28.25 276.17 27.9635 275.768 27.7542C275.366 27.5339 274.88 27.4237 274.313 27.4237C273.58 27.4237 272.982 27.6055 272.517 27.969C272.053 28.3216 271.707 28.7843 271.48 29.3571C271.263 29.93 271.155 30.5414 271.155 31.1914C271.155 31.8414 271.263 32.4528 271.48 33.0257C271.707 33.5985 272.053 34.0667 272.517 34.4303C272.992 34.7828 273.596 34.9591 274.328 34.9591Z" fill="#201541"/>
<path d="M256.555 37.0914V34.8275C256.906 34.8275 257.185 34.7559 257.391 34.6127C257.608 34.4695 257.768 34.2657 257.871 34.0013C257.985 33.7369 258.067 33.4284 258.119 33.0759C258.171 32.7674 258.207 32.4369 258.227 32.0844C258.248 31.7318 258.258 31.3958 258.258 31.0763C258.269 30.7458 258.274 30.4539 258.274 30.2005L258.32 25.3422H266.091V37.0418H263.862V27.54H260.41L260.379 30.3327C260.369 31.181 260.348 31.9797 260.317 32.7288C260.296 33.467 260.214 34.1335 260.069 34.7284C259.935 35.3122 259.698 35.797 259.357 36.1826C259.037 36.5241 258.661 36.7609 258.227 36.8931C257.804 37.0253 257.247 37.0914 256.555 37.0914Z" fill="#201541"/>
<path d="M249.53 37.1734C248.405 37.1734 247.435 36.9201 246.62 36.4133C245.815 35.9065 245.196 35.207 244.762 34.3146C244.339 33.4113 244.128 32.3757 244.128 31.2079C244.128 30.0181 244.344 28.9716 244.778 28.0682C245.222 27.1648 245.851 26.4653 246.666 25.9695C247.482 25.4628 248.452 25.2094 249.577 25.2094C250.691 25.2094 251.651 25.4573 252.456 25.953C253.261 26.4488 253.88 27.1428 254.314 28.0351C254.757 28.9275 254.979 29.9686 254.979 31.1584C254.979 32.3261 254.757 33.3672 254.314 34.2816C253.88 35.1849 253.256 35.8955 252.441 36.4133C251.636 36.9201 250.665 37.1734 249.53 37.1734ZM249.561 34.9591C250.304 34.9591 250.908 34.7773 251.372 34.4138C251.837 34.0502 252.172 33.582 252.379 33.0091C252.595 32.4363 252.704 31.8359 252.704 31.2079C252.704 30.7452 252.642 30.288 252.518 29.8364C252.404 29.3847 252.224 28.9771 251.976 28.6135C251.728 28.25 251.403 27.9635 251.001 27.7542C250.598 27.5339 250.113 27.4237 249.546 27.4237C248.813 27.4237 248.214 27.6055 247.75 27.969C247.286 28.3216 246.94 28.7843 246.713 29.3571C246.496 29.93 246.388 30.5414 246.388 31.1914C246.388 31.8414 246.496 32.4528 246.713 33.0257C246.94 33.5985 247.286 34.0667 247.75 34.4303C248.225 34.7828 248.828 34.9591 249.561 34.9591Z" fill="#201541"/>
<path d="M232.144 37.0418V25.3422H234.357V30.184H239.094V25.3422H241.323V37.0418H239.094V32.3653H234.357V37.0418H232.144Z" fill="#201541"/>
<path d="M219.637 37.0418L223.352 31.192L219.745 25.3422H222.423L224.76 29.4404L227.067 25.3422H229.699L226.092 31.1755L229.807 37.0418H227.129L224.683 32.9437L222.16 37.0418H219.637Z" fill="#201541"/>
<path d="M210.007 37.0418V25.3422H217.901V27.54H212.22V30.184H217.097V32.2992H212.22V34.8606H217.901V37.0418H210.007Z" fill="#201541"/>
<path d="M202.037 37.0418V27.54H198.693V25.3422H207.625V27.54H204.266V37.0418H202.037Z" fill="#201541"/>
<path d="M181.756 37.0418L185.471 31.192L181.864 25.3422H184.542L186.879 29.4404L189.186 25.3422H191.818L188.211 31.1755L191.926 37.0418H189.248L186.802 32.9437L184.279 37.0418H181.756Z" fill="#201541"/>
<path d="M167.803 37.0418V25.3422H170.017V29.6883H171.642C172.158 29.6883 172.659 29.7433 173.144 29.8535C173.639 29.9527 174.083 30.1344 174.475 30.3988C174.878 30.6522 175.192 31.0102 175.419 31.4729C175.657 31.9246 175.775 32.503 175.775 33.2081C175.775 33.9462 175.652 34.5631 175.404 35.0589C175.156 35.5546 174.821 35.9457 174.398 36.2321C173.975 36.5186 173.495 36.7279 172.958 36.8601C172.421 36.9813 171.864 37.0418 171.286 37.0418H167.803ZM170.017 34.8606H171.302C171.611 34.8606 171.905 34.8385 172.184 34.7945C172.463 34.7504 172.705 34.6733 172.912 34.5631C173.128 34.4419 173.293 34.2822 173.407 34.0839C173.531 33.8746 173.593 33.6047 173.593 33.2742C173.593 32.9326 173.531 32.6682 173.407 32.481C173.283 32.2827 173.118 32.1339 172.912 32.0348C172.705 31.9356 172.473 31.8695 172.215 31.8365C171.957 31.8034 171.689 31.7869 171.41 31.7869H170.017V34.8606ZM177.184 37.0418V25.3422H179.413V37.0418H177.184Z" fill="#201541"/>
<path d="M155.214 37.0418V25.3422H157.427V30.184H162.164V25.3422H164.393V37.0418H162.164V32.3653H157.427V37.0418H155.214Z" fill="#201541"/>
<path d="M143.64 37.0418V25.3422H148.439C148.944 25.3422 149.404 25.3973 149.816 25.5074C150.239 25.6066 150.606 25.7718 150.915 26.0032C151.225 26.2345 151.462 26.543 151.628 26.9286C151.803 27.3142 151.891 27.8044 151.891 28.3993C151.891 28.884 151.787 29.3357 151.581 29.7544C151.375 30.173 151.07 30.4925 150.668 30.7128C151.204 30.9001 151.628 31.2306 151.937 31.7043C152.247 32.167 152.402 32.7674 152.402 33.5055C152.402 34.1996 152.283 34.7779 152.045 35.2406C151.808 35.6923 151.483 36.0504 151.07 36.3148C150.657 36.5791 150.183 36.7664 149.646 36.8766C149.12 36.9868 148.562 37.0418 147.974 37.0418H143.64ZM145.853 34.8606H148.144C148.423 34.8606 148.681 34.8385 148.918 34.7945C149.166 34.7504 149.383 34.6788 149.569 34.5796C149.754 34.4695 149.899 34.3207 150.002 34.1335C150.116 33.9462 150.172 33.7148 150.172 33.4394C150.172 33.186 150.126 32.9767 150.033 32.8115C149.951 32.6352 149.827 32.492 149.662 32.3818C149.507 32.2717 149.321 32.1945 149.104 32.1505C148.898 32.1064 148.666 32.0844 148.408 32.0844H145.853V34.8606ZM145.853 30.1179H147.881C148.16 30.1179 148.413 30.0904 148.64 30.0353C148.867 29.9802 149.058 29.8921 149.213 29.7709C149.367 29.6497 149.486 29.5065 149.569 29.3412C149.651 29.165 149.692 28.9556 149.692 28.7133C149.692 28.3938 149.625 28.1514 149.491 27.9862C149.357 27.8099 149.171 27.6887 148.934 27.6226C148.707 27.5565 148.433 27.5235 148.114 27.5235H145.853V30.1179Z" fill="#201541"/>
<path d="M130.899 37.0418V25.3422H133.113V33.0428L138.361 25.3422H140.249V37.0418H138.036V29.4404L132.788 37.0418H130.899Z" fill="#201541"/>
<path d="M122.931 37.0418V27.54H119.588V25.3422H128.52V27.54H125.161V37.0418H122.931Z" fill="#201541"/>
<path d="M107.855 37.0418V25.3422H110.069V33.0428L115.317 25.3422H117.205V37.0418H114.992V29.4404L109.744 37.0418H107.855Z" fill="#201541"/>
<path d="M94.4135 39.9998V34.8606C94.8366 34.8606 95.1514 34.7449 95.3578 34.5135C95.5642 34.2822 95.7139 33.9958 95.8067 33.6542C95.8996 33.3017 95.9719 32.9326 96.0235 32.5471C96.0854 32.1615 96.1318 31.7704 96.1628 31.3738C96.1937 30.9772 96.2144 30.5916 96.2247 30.217C96.266 29.3688 96.2969 28.5425 96.3176 27.7383C96.3382 26.9341 96.3485 26.1354 96.3485 25.3422H104.089V34.8606H105.404V39.9998H103.191V37.0418H96.6272V39.9998H94.4135ZM97.7727 34.8606H101.875V27.54H98.3919L98.3145 31.2251C98.3145 31.4454 98.3042 31.7098 98.2836 32.0183C98.2733 32.3157 98.2474 32.6297 98.2062 32.9602C98.1649 33.2907 98.1081 33.6212 98.0359 33.9517C97.974 34.2822 97.8862 34.5851 97.7727 34.8606Z" fill="#201541"/>
<path d="M81.1609 39.9998V34.8606C81.584 34.8606 81.8988 34.7449 82.1052 34.5135C82.3116 34.2822 82.4612 33.9958 82.5541 33.6542C82.647 33.3017 82.7192 32.9326 82.7708 32.5471C82.8328 32.1615 82.8792 31.7704 82.9102 31.3738C82.9411 30.9772 82.9618 30.5916 82.9721 30.217C83.0134 29.3688 83.0443 28.5425 83.065 27.7383C83.0856 26.9341 83.0959 26.1354 83.0959 25.3422H90.836V34.8606H92.1518V39.9998H89.9382V37.0418H83.3746V39.9998H81.1609ZM84.5201 34.8606H88.6224V27.54H85.1393L85.0619 31.2251C85.0619 31.4454 85.0516 31.7098 85.0309 32.0183C85.0206 32.3157 84.9948 32.6297 84.9535 32.9602C84.9123 33.2907 84.8555 33.6212 84.7833 33.9517C84.7213 34.2822 84.6336 34.5851 84.5201 34.8606Z" fill="#201541"/>
<path d="M68.5837 37.0418L72.8563 25.3422H75.3331L79.5592 37.0418H77.1752L76.4941 35.0423H71.6488L70.9677 37.0418H68.5837ZM72.3609 32.9106H75.7975L74.0947 27.854L72.3609 32.9106Z" fill="#201541"/>
<path d="M51.5224 37.0418V25.3422H53.7361V33.0428L58.9839 25.3422H60.8725V37.0418H58.6588V29.4404L53.411 37.0418H51.5224Z" fill="#201541"/>
<path d="M230.187 17.2122L233.903 11.3623L230.296 5.51251H232.974L235.311 9.6107L237.618 5.51251H240.25L236.643 11.3458L240.358 17.2122H237.68L235.234 13.114L232.711 17.2122H230.187Z" fill="#201541"/>
<path d="M216.235 17.2122V5.51251H218.449V9.85857H220.074C220.59 9.85857 221.091 9.91365 221.576 10.0238C222.071 10.123 222.515 10.3047 222.907 10.5691C223.309 10.8225 223.624 11.1806 223.851 11.6433C224.089 12.0949 224.207 12.6733 224.207 13.3784C224.207 14.1165 224.083 14.7334 223.836 15.2292C223.588 15.7249 223.253 16.116 222.829 16.4024C222.406 16.6889 221.926 16.8982 221.39 17.0304C220.853 17.1516 220.296 17.2122 219.718 17.2122H216.235ZM218.449 15.0309H219.733C220.043 15.0309 220.337 15.0088 220.616 14.9648C220.894 14.9207 221.137 14.8436 221.343 14.7334C221.56 14.6122 221.725 14.4525 221.839 14.2542C221.963 14.0449 222.025 13.775 222.025 13.4445C222.025 13.103 221.963 12.8386 221.839 12.6513C221.715 12.453 221.55 12.3043 221.343 12.2051C221.137 12.106 220.905 12.0399 220.647 12.0068C220.389 11.9738 220.12 11.9572 219.842 11.9572H218.449V15.0309ZM225.616 17.2122V5.51251H227.845V17.2122H225.616Z" fill="#201541"/>
<path d="M204.659 17.2122V5.51251H209.458C209.964 5.51251 210.423 5.5676 210.836 5.67776C211.259 5.77691 211.626 5.94216 211.935 6.17351C212.245 6.40486 212.482 6.71332 212.647 7.09891C212.823 7.48449 212.91 7.97473 212.91 8.56963C212.91 9.05436 212.807 9.50604 212.601 9.92467C212.394 10.3433 212.09 10.6628 211.687 10.8831C212.224 11.0704 212.647 11.4009 212.957 11.8746C213.266 12.3373 213.421 12.9377 213.421 13.6758C213.421 14.3699 213.303 14.9483 213.065 15.4109C212.828 15.8626 212.503 16.2207 212.09 16.4851C211.677 16.7495 211.202 16.9368 210.666 17.0469C210.139 17.1571 209.582 17.2122 208.994 17.2122H204.659ZM206.873 15.0309H209.164C209.443 15.0309 209.701 15.0088 209.938 14.9648C210.186 14.9207 210.403 14.8491 210.588 14.75C210.774 14.6398 210.919 14.4911 211.022 14.3038C211.135 14.1165 211.192 13.8851 211.192 13.6097C211.192 13.3563 211.146 13.147 211.053 12.9818C210.97 12.8055 210.846 12.6623 210.681 12.5521C210.526 12.442 210.341 12.3649 210.124 12.3208C209.918 12.2767 209.685 12.2547 209.427 12.2547H206.873V15.0309ZM206.873 10.2882H208.901C209.18 10.2882 209.433 10.2607 209.66 10.2056C209.887 10.1505 210.078 10.0624 210.232 9.94119C210.387 9.82001 210.506 9.6768 210.588 9.51155C210.671 9.33528 210.712 9.12596 210.712 8.8836C210.712 8.56412 210.645 8.32175 210.511 8.1565C210.377 7.98024 210.191 7.85905 209.954 7.79295C209.727 7.72685 209.453 7.6938 209.133 7.6938H206.873V10.2882Z" fill="#201541"/>
<path d="M196.416 17.3438C195.291 17.3438 194.321 17.0904 193.506 16.5836C192.701 16.0768 192.082 15.3773 191.648 14.4849C191.225 13.5816 191.013 12.546 191.013 11.3783C191.013 10.1885 191.23 9.14188 191.664 8.23851C192.107 7.33515 192.737 6.6356 193.552 6.13985C194.368 5.63308 195.338 5.3797 196.462 5.3797C197.577 5.3797 198.537 5.62757 199.342 6.12332C200.147 6.61907 200.766 7.31312 201.199 8.20546C201.643 9.09781 201.865 10.1389 201.865 11.3287C201.865 12.4964 201.643 13.5375 201.199 14.4519C200.766 15.3553 200.142 16.0658 199.326 16.5836C198.521 17.0904 197.551 17.3438 196.416 17.3438ZM196.447 15.1294C197.19 15.1294 197.794 14.9476 198.258 14.5841C198.723 14.2205 199.058 13.7523 199.264 13.1795C199.481 12.6066 199.59 12.0062 199.59 11.3783C199.59 10.9156 199.528 10.4584 199.404 10.0067C199.29 9.555 199.11 9.14739 198.862 8.78384C198.614 8.42029 198.289 8.13386 197.887 7.92454C197.484 7.70421 196.999 7.59404 196.432 7.59404C195.699 7.59404 195.1 7.77582 194.636 8.13936C194.171 8.4919 193.826 8.95459 193.599 9.52746C193.382 10.1003 193.274 10.7117 193.274 11.3617C193.274 12.0117 193.382 12.6231 193.599 13.196C193.826 13.7689 194.171 14.2371 194.636 14.6006C195.111 14.9531 195.714 15.1294 196.447 15.1294Z" fill="#201541"/>
<path d="M180.3 17.2122V5.51251H184.572C185.408 5.51251 186.136 5.65022 186.755 5.92563C187.384 6.19003 187.869 6.61968 188.21 7.21458C188.551 7.79846 188.721 8.58064 188.721 9.56112C188.721 10.4755 188.53 11.2412 188.148 11.8581C187.776 12.475 187.266 12.9377 186.615 13.2462C185.965 13.5436 185.227 13.6924 184.402 13.6924H182.513V17.2122H180.3ZM182.513 11.5772H184.371C185.031 11.5772 185.553 11.4119 185.934 11.0814C186.327 10.7399 186.523 10.2276 186.523 9.5446C186.523 8.92766 186.357 8.47048 186.027 8.17303C185.707 7.86456 185.191 7.71033 184.479 7.71033H182.513V11.5772Z" fill="#201541"/>
<path d="M170.205 17.4433V15.6255H169.632C168.724 15.6145 167.929 15.4327 167.248 15.0802C166.577 14.7277 166.056 14.2154 165.684 13.5434C165.323 12.8714 165.142 12.0506 165.142 11.0812C165.142 10.0897 165.339 9.25792 165.731 8.58591C166.123 7.9139 166.66 7.41264 167.341 7.08214C168.022 6.74063 168.801 6.56987 169.678 6.56987H170.205V5H172.418V6.56987H172.883C173.76 6.56987 174.544 6.74063 175.236 7.08214C175.927 7.42366 176.474 7.92491 176.877 8.58591C177.289 9.24691 177.496 10.0676 177.496 11.0481C177.496 12.0286 177.315 12.8604 176.954 13.5434C176.593 14.2154 176.072 14.7277 175.39 15.0802C174.709 15.4327 173.899 15.6145 172.96 15.6255H172.418V17.4433H170.205ZM169.771 13.593H170.205V8.61896H169.771C169.245 8.61896 168.796 8.72362 168.424 8.93293C168.063 9.14225 167.784 9.42868 167.588 9.79223C167.403 10.1558 167.31 10.5744 167.31 11.0481C167.31 11.5439 167.397 11.9845 167.573 12.3701C167.748 12.7447 168.017 13.0421 168.378 13.2625C168.749 13.4828 169.214 13.593 169.771 13.593ZM172.418 13.593H172.867C173.424 13.593 173.884 13.4828 174.245 13.2625C174.606 13.0421 174.874 12.7447 175.05 12.3701C175.225 11.9845 175.313 11.5439 175.313 11.0481C175.313 10.5744 175.215 10.1558 175.019 9.79223C174.833 9.42868 174.56 9.14225 174.198 8.93293C173.837 8.72362 173.388 8.61896 172.852 8.61896H172.418V13.593Z" fill="#201541"/>
<path d="M152.992 17.2122V5.51251H155.206V13.2131L160.454 5.51251H162.342V17.2122H160.129V9.6107L154.881 17.2122H152.992Z" fill="#201541"/>
<path d="M148.33 20.1701V17.2122H140.404V5.51251H142.618V15.0309H147.045V5.51251H149.259V15.0309H150.559V20.1701H148.33Z" fill="#201541"/>
<path d="M121.718 17.2122L125.99 5.51251H128.467L132.693 17.2122H130.309L129.628 15.2126H124.783L124.102 17.2122H121.718ZM125.495 13.0809H128.931L127.229 8.0243L125.495 13.0809Z" fill="#201541"/>
<path d="M112.618 17.2122V5.51251H116.891C117.727 5.51251 118.454 5.65022 119.074 5.92563C119.703 6.19003 120.188 6.61968 120.529 7.21458C120.869 7.79846 121.04 8.58064 121.04 9.56112C121.04 10.4755 120.849 11.2412 120.467 11.8581C120.095 12.475 119.584 12.9377 118.934 13.2462C118.284 13.5436 117.546 13.6924 116.721 13.6924H114.832V17.2122H112.618ZM114.832 11.5772H116.69C117.35 11.5772 117.871 11.4119 118.253 11.0814C118.645 10.7399 118.841 10.2276 118.841 9.5446C118.841 8.92766 118.676 8.47048 118.346 8.17303C118.026 7.86456 117.51 7.71033 116.798 7.71033H114.832V11.5772Z" fill="#201541"/>
<path d="M99.1751 20.1701V15.0309C99.5983 15.0309 99.913 14.9152 100.119 14.6839C100.326 14.4525 100.475 14.1661 100.568 13.8246C100.661 13.472 100.733 13.103 100.785 12.7174C100.847 12.3318 100.893 11.9407 100.924 11.5441C100.955 11.1475 100.976 10.7619 100.986 10.3874C101.028 9.53909 101.059 8.71284 101.079 7.90863C101.1 7.10441 101.11 6.30571 101.11 5.51251H108.85V15.0309H110.166V20.1701H107.952V17.2122H101.389V20.1701H99.1751ZM102.534 15.0309H106.637V7.71033H103.154L103.076 11.3954C103.076 11.6157 103.066 11.8801 103.045 12.1886C103.035 12.486 103.009 12.8 102.968 13.1305C102.927 13.461 102.87 13.7915 102.798 14.122C102.736 14.4525 102.648 14.7555 102.534 15.0309Z" fill="#201541"/>
<path d="M89.4384 17.2122V5.51251H97.3334V7.71033H91.6521V10.3543H96.5284V12.4695H91.6521V15.0309H97.3334V17.2122H89.4384Z" fill="#201541"/>
<path d="M79.342 17.4433V15.6255H78.7692C77.8611 15.6145 77.0664 15.4327 76.3853 15.0802C75.7145 14.7277 75.1933 14.2154 74.8218 13.5434C74.4606 12.8714 74.28 12.0506 74.28 11.0812C74.28 10.0897 74.4761 9.25792 74.8682 8.58591C75.2604 7.9139 75.797 7.41264 76.4782 7.08214C77.1593 6.74063 77.9385 6.56987 78.8157 6.56987H79.342V5H81.5557V6.56987H82.0201C82.8973 6.56987 83.6816 6.74063 84.3731 7.08214C85.0645 7.42366 85.6115 7.92491 86.014 8.58591C86.4268 9.24691 86.6332 10.0676 86.6332 11.0481C86.6332 12.0286 86.4526 12.8604 86.0914 13.5434C85.7302 14.2154 85.209 14.7277 84.5279 15.0802C83.8467 15.4327 83.0366 15.6145 82.0975 15.6255H81.5557V17.4433H79.342ZM78.9086 13.593H79.342V8.61896H78.9086C78.3822 8.61896 77.9333 8.72362 77.5618 8.93293C77.2006 9.14225 76.9219 9.42868 76.7258 9.79223C76.5401 10.1558 76.4472 10.5744 76.4472 11.0481C76.4472 11.5439 76.5349 11.9845 76.7104 12.3701C76.8858 12.7447 77.1541 13.0421 77.5153 13.2625C77.8869 13.4828 78.3513 13.593 78.9086 13.593ZM81.5557 13.593H82.0046C82.5619 13.593 83.0211 13.4828 83.3823 13.2625C83.7435 13.0421 84.0119 12.7447 84.1873 12.3701C84.3628 11.9845 84.4505 11.5439 84.4505 11.0481C84.4505 10.5744 84.3524 10.1558 84.1564 9.79223C83.9706 9.42868 83.6971 9.14225 83.3359 8.93293C82.9747 8.72362 82.5258 8.61896 81.9891 8.61896H81.5557V13.593Z" fill="#201541"/>
<path d="M61.8766 17.2122L66.1491 5.51251H68.626L72.8521 17.2122H70.4681L69.787 15.2126H64.9417L64.2605 17.2122H61.8766ZM65.6538 13.0809H69.0904L67.3875 8.0243L65.6538 13.0809Z" fill="#201541"/>
<path d="M51.5224 17.2122V5.51251H53.7361V10.3708H55.2996L58.1479 5.51251H60.6867L57.1572 11.1971L60.6712 17.2122H58.086L55.377 12.5521H53.7361V17.2122H51.5224Z" fill="#201541"/>
<path fill-rule="evenodd" clip-rule="evenodd" d="M0 33.9098V28.8589L4.01317 24.7537C4.69494 24.0563 5.80031 24.0563 6.48207 24.7537C7.16384 25.4511 7.16384 26.5818 6.48207 27.2792L0 33.9098ZM6.33843 39.9996H5.42518C3.25459 39.9996 1.38173 38.6933 0.514371 36.806L8.62472 28.5098C9.68572 27.4245 11.406 27.4245 12.467 28.5098L13.0978 29.155C14.1588 30.2403 14.1588 32 13.0978 33.0854L6.33843 39.9996ZM14.6163 39.9996H9.67845L15.4539 34.0919C16.1357 33.3945 17.241 33.3945 17.9227 34.0919C18.6045 34.7893 18.6045 35.92 17.9227 36.6174L14.6163 39.9996ZM26.8894 39.9996H17.9432L30.4596 27.1965C31.5207 26.1111 33.2409 26.1111 34.302 27.1965L34.9327 27.8417C35.9937 28.927 35.9937 30.6867 34.9327 31.7721L26.8894 39.9996ZM39.0321 31.3351V34.44C39.0321 37.5105 36.6032 39.9996 33.6069 39.9996H30.232L38.0875 31.9641C38.3651 31.6802 38.6879 31.4705 39.0321 31.3351ZM39.0321 6.26019V11.3112L35.0179 15.4174C34.3361 16.1148 33.2307 16.1148 32.549 15.4174C31.8672 14.72 31.8672 13.5893 32.549 12.8919L39.0321 6.26019ZM32.8603 0H33.6069C35.8221 0 37.7272 1.36053 38.5699 3.31066L30.4064 11.6613C29.3453 12.7466 27.6251 12.7466 26.564 11.6613L25.9333 11.0161C24.8722 9.93075 24.8722 8.17106 25.9333 7.08571L32.8603 0ZM24.582 0H29.5199L23.5772 6.07882C22.8954 6.77621 21.7901 6.77621 21.1083 6.07882C20.4265 5.38143 20.4265 4.25073 21.1083 3.55335L24.582 0ZM12.3092 0H21.2553L8.57142 12.9746C7.51038 14.0599 5.79011 14.0599 4.72907 12.9746L4.09834 12.3294C3.03731 11.244 3.03731 9.48437 4.09835 8.39903L12.3092 0ZM8.96706 0L0.944207 8.2067C0.666703 8.49057 0.344105 8.70019 0 8.83557V5.55966C0 2.48915 2.42894 0 5.42518 0H8.96706Z" fill="#201541"/>
</svg>
